<svg width="26" height="26" viewBox="0 0 26 26" fill="none" xmlns="http://www.w3.org/2000/svg">
<g clip-path="url(#clip0_1_551)">
<path d="M13.3981 5.19604C7.66243 5.19604 2.99609 9.86239 2.99609 15.5981C2.99609 21.3338 7.66243 26.0001 13.3981 26.0001C19.1337 26.0001 23.8001 21.3337 23.8001 15.5981C23.8001 9.86244 19.1338 5.19604 13.3981 5.19604ZM13.3981 24.4766C8.50246 24.4766 4.51953 20.4937 4.51953 15.5981C4.51953 10.7025 8.50246 6.71953 13.3981 6.71953C18.2937 6.71953 22.2766 10.7025 22.2766 15.5981C22.2766 20.4937 18.2937 24.4766 13.3981 24.4766Z" fill="white"/>
<path d="M17.9407 17.5324C17.6214 17.2586 17.1405 17.2953 16.8667 17.6147C15.9969 18.6287 14.7326 19.2103 13.398 19.2103C12.0636 19.2103 10.7993 18.6288 9.92954 17.6148C9.65562 17.2954 9.17478 17.2587 8.85546 17.5325C8.53615 17.8065 8.49933 18.2874 8.77325 18.6066C9.93279 19.9584 11.6185 20.7337 13.3981 20.7337C15.1777 20.7337 16.8635 19.9584 18.023 18.6065C18.2969 18.2873 18.26 17.8064 17.9407 17.5324Z" fill="white"/>
<path d="M9.16937 14.3999C9.59004 14.3999 9.93109 14.0589 9.93109 13.6382C9.93109 13.394 10.1298 13.1953 10.374 13.1953C10.6182 13.1953 10.8169 13.394 10.8169 13.6382C10.8169 14.0589 11.158 14.3999 11.5786 14.3999C11.9993 14.3999 12.3404 14.0589 12.3404 13.6382C12.3404 12.554 11.4582 11.6719 10.374 11.6719C9.28977 11.6719 8.40765 12.554 8.40765 13.6382C8.40765 14.0589 8.7487 14.3999 9.16937 14.3999Z" fill="white"/>
<path d="M16.4222 11.6719C15.3379 11.6719 14.4558 12.554 14.4558 13.6382C14.4558 14.0589 14.7969 14.4 15.2175 14.4C15.6382 14.4 15.9792 14.0589 15.9792 13.6382C15.9792 13.394 16.178 13.1953 16.4222 13.1953C16.6664 13.1953 16.8651 13.394 16.8651 13.6382C16.8651 14.0589 17.2061 14.4 17.6268 14.4C18.0475 14.4 18.3885 14.0589 18.3885 13.6382C18.3885 12.5539 17.5064 11.6719 16.4222 11.6719Z" fill="white"/>
<path d="M19.6736 4.27881H20.7849C21.2056 4.27881 21.5466 3.93776 21.5466 3.51709C21.5466 3.09642 21.2056 2.75537 20.7849 2.75537H19.6736C19.253 2.75537 18.9119 3.09642 18.9119 3.51709C18.9119 3.93776 19.253 4.27881 19.6736 4.27881Z" fill="white"/>
<path d="M22.456 7.03434C22.8767 7.03434 23.2177 6.69329 23.2177 6.27262V5.16138C23.2177 4.7407 22.8767 4.39966 22.456 4.39966C22.0353 4.39966 21.6943 4.7407 21.6943 5.16138V6.27262C21.6943 6.69334 22.0353 7.03434 22.456 7.03434Z" fill="white"/>
<path d="M25.2383 2.75537H24.1271C23.7064 2.75537 23.3654 3.09642 23.3654 3.51709C23.3654 3.93776 23.7064 4.27881 24.1271 4.27881H25.2383C25.659 4.27881 26.0001 3.93776 26.0001 3.51709C26.0001 3.09642 25.659 2.75537 25.2383 2.75537Z" fill="white"/>
<path d="M22.456 2.63468C22.8767 2.63468 23.2177 2.29364 23.2177 1.87296V0.761719C23.2177 0.341047 22.8767 0 22.456 0C22.0353 0 21.6943 0.341047 21.6943 0.761719V1.87296C21.6943 2.29364 22.0353 2.63468 22.456 2.63468Z" fill="white"/>
<path d="M1.64887 3.771H0.761719C0.341047 3.771 0 4.11204 0 4.53271C0 4.95339 0.341047 5.29443 0.761719 5.29443H1.64887C2.06954 5.29443 2.41059 4.95339 2.41059 4.53271C2.41059 4.11204 2.06954 3.771 1.64887 3.771Z" fill="white"/>
<path d="M3.9986 6.98651V6.09937C3.9986 5.67869 3.65755 5.33765 3.23688 5.33765C2.81621 5.33765 2.47516 5.67869 2.47516 6.09937V6.98651C2.47516 7.40719 2.81621 7.74823 3.23688 7.74823C3.65755 7.74823 3.9986 7.40719 3.9986 6.98651Z" fill="white"/>
<path d="M4.82489 5.29443H5.71204C6.13271 5.29443 6.47376 4.95339 6.47376 4.53271C6.47376 4.11204 6.13271 3.771 5.71204 3.771H4.82489C4.40422 3.771 4.06317 4.11204 4.06317 4.53271C4.06317 4.95339 4.40422 5.29443 4.82489 5.29443Z" fill="white"/>
<path d="M3.23688 3.72797C3.65755 3.72797 3.9986 3.38692 3.9986 2.96625V2.0791C3.9986 1.65843 3.65755 1.31738 3.23688 1.31738C2.81621 1.31738 2.47516 1.65843 2.47516 2.0791V2.96625C2.47516 3.38692 2.81621 3.72797 3.23688 3.72797Z" fill="white"/>
</g>
<defs>
<clipPath id="clip0_1_551">
<rect width="26" height="26" fill="white"/>
</clipPath>
</defs>
</svg>
