<svg width="33" height="33" viewBox="0 0 33 33" fill="none" xmlns="http://www.w3.org/2000/svg">
<g clip-path="url(#clip0_1_516)">
<path d="M15.8125 16.5C15.433 16.5 15.125 16.192 15.125 15.8125V8.9375C15.125 8.558 15.433 8.25 15.8125 8.25H17.875C19.3916 8.25 20.625 9.48337 20.625 11C20.625 12.5166 19.3916 13.75 17.875 13.75H16.5V15.8125C16.5 16.192 16.192 16.5 15.8125 16.5ZM16.5 12.375H17.875C18.634 12.375 19.25 11.7576 19.25 11C19.25 10.2424 18.634 9.625 17.875 9.625H16.5V12.375Z" fill="#00329B"/>
<path d="M19.9375 16.4999C19.7615 16.4999 19.5855 16.4326 19.4508 16.2992L16.7008 13.5492C16.4326 13.2811 16.4326 12.8452 16.7008 12.5771C16.9689 12.3089 17.4048 12.3089 17.6729 12.5771L20.4229 15.3271C20.691 15.5952 20.691 16.0311 20.4229 16.2992C20.2895 16.4326 20.1135 16.4999 19.9375 16.4999Z" fill="#00329B"/>
<path d="M9.625 16.5001C9.32112 16.5001 9.05437 16.3007 8.96637 16.0106L6.90387 9.13559C6.79387 8.77259 7.00012 8.38896 7.36449 8.27896C7.7275 8.17171 8.11112 8.37659 8.22112 8.73959L9.625 13.4201L11.0289 8.74096C11.1375 8.37659 11.5239 8.17309 11.8841 8.28034C12.2485 8.39034 12.4547 8.77259 12.3447 9.13696L10.2822 16.012C10.1956 16.3007 9.92887 16.5001 9.625 16.5001Z" fill="#00329B"/>
<path d="M25.4375 12.375C24.3004 12.375 23.375 11.4496 23.375 10.3125C23.375 9.17537 24.3004 8.25 25.4375 8.25C26.5746 8.25 27.5 9.17537 27.5 10.3125C27.5 11.4496 26.5746 12.375 25.4375 12.375ZM25.4375 9.625C25.0594 9.625 24.75 9.933 24.75 10.3125C24.75 10.692 25.0594 11 25.4375 11C25.8156 11 26.125 10.692 26.125 10.3125C26.125 9.933 25.8156 9.625 25.4375 9.625Z" fill="#00329B"/>
<path d="M29.5625 23.375H20.8587C20.5631 23.375 20.3005 23.1853 20.2056 22.9048L19.602 21.0898C19.5071 20.8161 19.2417 20.625 18.9475 20.625H14.0525C13.7582 20.625 13.4942 20.8161 13.3939 21.1008L12.793 22.9061C12.6995 23.1853 12.4369 23.375 12.1412 23.375H3.43749C1.54137 23.375 -7.62939e-06 21.8323 -7.62939e-06 19.9375V7.5625C-7.62939e-06 5.66775 1.54137 4.125 3.43749 4.125H29.5625C31.4586 4.125 33 5.66775 33 7.5625V19.9375C33 21.8323 31.4586 23.375 29.5625 23.375ZM21.3537 22H29.5625C30.6996 22 31.625 21.0746 31.625 19.9375V7.5625C31.625 6.42538 30.6996 5.5 29.5625 5.5H3.43749C2.30037 5.5 1.37499 6.42538 1.37499 7.5625V19.9375C1.37499 21.0746 2.30037 22 3.43749 22H11.6462L12.0931 20.6553C12.3901 19.811 13.1752 19.25 14.0525 19.25H18.9489C19.8261 19.25 20.6112 19.811 20.9041 20.6456L21.3537 22Z" fill="#00329B"/>
<path d="M28.1875 5.5C27.808 5.5 27.5 5.192 27.5 4.8125V3.4375C27.5 2.30037 26.5746 1.375 25.4375 1.375H7.56249C6.42537 1.375 5.49999 2.30037 5.49999 3.4375V4.8125C5.49999 5.192 5.19199 5.5 4.81249 5.5C4.43299 5.5 4.12499 5.192 4.12499 4.8125V3.4375C4.12499 1.54275 5.66637 0 7.56249 0H25.4375C27.3336 0 28.875 1.54275 28.875 3.4375V4.8125C28.875 5.192 28.567 5.5 28.1875 5.5Z" fill="#00329B"/>
<path d="M15.125 33C14.9174 33 14.7097 32.9051 14.575 32.725C14.3481 32.4211 14.41 31.9907 14.7139 31.7625L16.731 30.25L14.7125 28.7375C14.4086 28.5092 14.3467 28.0789 14.5736 27.775C14.8032 27.4697 15.2336 27.412 15.5361 27.6375L18.2861 29.7C18.4594 29.8292 18.5611 30.0341 18.5611 30.25C18.5611 30.4658 18.4594 30.6707 18.2861 30.8L15.5361 32.8625C15.4137 32.9546 15.268 33 15.125 33Z" fill="#00329B"/>
<path d="M16.5 30.9375C15.0906 30.9375 13.6537 30.8852 12.2306 30.7848C6.31812 30.3586 -7.62939e-06 28.9107 -7.62939e-06 26.125C-7.62939e-06 25.8348 0.0756174 25.5365 0.224117 25.2395C0.394617 24.8985 0.809867 24.7623 1.14812 24.9328C1.48637 25.1033 1.62387 25.5158 1.45474 25.8555C1.40249 25.96 1.37499 26.0507 1.37499 26.125C1.37499 27.1328 4.85512 28.875 12.3282 29.414C13.7294 29.513 15.1209 29.6106 16.5289 29.5625C16.8534 29.5625 17.1655 29.5625 17.4762 29.5501C17.8736 29.5336 18.1761 29.8292 18.1926 30.2087C18.2077 30.5882 17.9121 30.9086 17.534 30.9237C17.193 30.9375 16.8534 30.9375 16.5 30.9375Z" fill="#00329B"/>
<path d="M21.2974 30.7313C20.944 30.7313 20.6429 30.4591 20.614 30.1002C20.5838 29.7221 20.8643 29.3893 21.2424 29.3577C28.3264 28.7788 31.625 27.0862 31.625 26.1251C31.625 26.0508 31.5975 25.9601 31.5453 25.8556C31.3761 25.516 31.5136 25.1034 31.8519 24.9329C32.1888 24.7611 32.604 24.8986 32.7759 25.2396C32.9244 25.5366 33 25.8349 33 26.1251C33 29.5117 24.0873 30.5058 21.3551 30.7299C21.3373 30.7313 21.3166 30.7313 21.2974 30.7313Z" fill="#00329B"/>
</g>
<defs>
<clipPath id="clip0_1_516">
<rect width="33" height="33" fill="white"/>
</clipPath>
</defs>
</svg>
